<svg width="101" height="101" viewBox="0 0 101 101" fill="none" xmlns="http://www.w3.org/2000/svg">
<path d="M0 0V101C34.8909 98.6 48.2045 79.6667 50.5 70.5C58.4576 94.1 87.4823 100.667 101 101V0H0Z" fill="black"/>
<mask id="mask0_245_761" style="mask-type:alpha" maskUnits="userSpaceOnUse" x="0" y="0" width="101" height="101">
<path d="M0 0V101C34.8909 98.6 48.2045 79.6667 50.5 70.5C58.4576 94.1 87.4823 100.667 101 101V0H0Z" fill="black"/>
</mask>
<g mask="url(#mask0_245_761)">
<path fill-rule="evenodd" clip-rule="evenodd" d="M51.043 15.3915C51.0145 15.1605 50.9998 14.9253 50.9998 14.6866C50.9998 11.546 53.5458 9 56.6864 9C59.8271 9 62.373 11.546 62.373 14.6866C62.373 17.4489 60.4036 19.7511 57.7923 20.2658C51.9414 22.4632 51.91 28.5091 51.8659 37.0039C51.8432 41.3632 51.8172 46.3674 50.9997 51.8274L51.043 15.3915Z" fill="#57B492"/>
<path d="M57.9507 13.5022C58.2255 13.475 58.4703 13.6757 58.4976 13.9505C58.5248 14.2253 58.3241 14.4701 58.0493 14.4973L57.9507 13.5022ZM52.9091 20.6193L53.3803 20.7865L52.9091 20.6193ZM58.0493 14.4973C57.6937 14.5325 56.9676 14.8462 56.0891 15.8213C55.2231 16.7824 54.2451 18.3494 53.3803 20.7865L52.4379 20.4521C53.3353 17.923 54.3724 16.2327 55.3462 15.1519C56.3074 14.085 57.2457 13.572 57.9507 13.5022L58.0493 14.4973ZM53.3803 20.7865C52.4524 23.4017 51.9766 27.5913 51.7379 31.8457C51.5001 36.0826 51.5 40.3195 51.5 42.9998H50.5C50.5 40.3213 50.4999 36.0582 50.7394 31.7897C50.978 27.5386 51.4567 23.2174 52.4379 20.4521L53.3803 20.7865Z" fill="white"/>
<path fill-rule="evenodd" clip-rule="evenodd" d="M50.9997 36.6781C50.9507 36.2863 50.9255 35.8871 50.9255 35.4821C50.9255 30.2148 55.1954 25.9448 60.4627 25.9448C65.73 25.9448 70 30.2148 70 35.4821C70 40.0647 66.768 43.8923 62.4591 44.8101C52.5316 48.7994 52.487 63.2634 52.4341 80.4282C52.4069 89.2568 52.3775 98.8 51 108L50.9997 36.6781Z" fill="#F1F5F9"/>
<path d="M61.9502 32.5025C62.225 32.475 62.47 32.6755 62.4975 32.9502C62.525 33.225 62.3245 33.47 62.0498 33.4975L61.9502 32.5025ZM62.0498 33.4975C61.3765 33.5648 60.0813 34.1043 58.6412 35.653C57.2115 37.1905 55.6615 39.7019 54.4789 43.6437L53.5211 43.3563C54.7385 39.2981 56.3552 36.6428 57.9088 34.972C59.4521 33.3124 60.9569 32.6018 61.9502 32.5025L62.0498 33.4975ZM54.4789 43.6437C53.2972 47.5827 52.5491 54.2798 52.0989 61.0955C51.6498 67.8952 51.5 74.7591 51.5 79H50.5C50.5 74.7409 50.6502 67.8548 51.1011 61.0295C51.5509 54.2202 52.3028 47.4173 53.5211 43.3563L54.4789 43.6437Z" fill="#57B492"/>
<path fill-rule="evenodd" clip-rule="evenodd" d="M51.0739 19.6455C51.0743 19.6094 51.0745 19.5732 51.0745 19.537C51.0745 14.2697 46.8046 9.99976 41.5373 9.99976C36.27 9.99976 32 14.2697 32 19.537C32 24.1697 35.3031 28.031 39.6827 28.8941C49.4954 32.5794 49.5481 42.7192 49.6221 56.9661C49.6601 64.2773 49.7037 72.6701 51.0748 81.8272V19.6303C51.0883 19.3851 51.0871 19.1724 51.0748 18.9998V19.6303C51.0745 19.6354 51.0742 19.6404 51.0739 19.6455Z" fill="#F1F5F9"/>
<path d="M40.0498 18.5025C39.775 18.475 39.53 18.6755 39.5025 18.9502C39.475 19.225 39.6755 19.47 39.9502 19.4975L40.0498 18.5025ZM48 29.5L47.5281 29.6652L48 29.5ZM39.9502 19.4975C40.6079 19.5633 41.8119 20.1167 43.2175 21.6894C44.6105 23.248 46.1646 25.7695 47.5281 29.6652L48.4719 29.3348C47.0763 25.3472 45.4637 22.702 43.9631 21.0231C42.4752 19.3583 41.0587 18.6034 40.0498 18.5025L39.9502 19.4975ZM47.5281 29.6652C49.2484 34.5805 49.75 41.5073 49.8125 48.3171C49.8437 51.7135 49.7658 55.0652 49.6799 58.1031C49.5941 61.1359 49.5 63.8657 49.5 66H50.5C50.5 63.8843 50.5934 61.1766 50.6795 58.1313C50.7655 55.0911 50.8438 51.724 50.8125 48.3079C50.75 41.4927 50.2516 34.4195 48.4719 29.3348L47.5281 29.6652Z" fill="#57B492"/>
<path fill-rule="evenodd" clip-rule="evenodd" d="M51.0021 46.7183C51.0499 46.3314 51.0745 45.9372 51.0745 45.5373C51.0745 40.27 46.8046 36 41.5373 36C36.27 36 32 40.27 32 45.5373C32 50.1704 35.3037 54.032 39.684 54.8946C49.4954 58.5803 49.5481 68.7199 49.6221 82.9662C49.6601 90.2773 49.7037 98.6701 51.0748 107.827L51.0021 46.7183Z" fill="#57B492"/>
<path d="M39.5 43C41.1667 43.1667 45.1 45.5 47.5 53.5C52 68.5 50.5 83 50.5 91.5" stroke="white" stroke-linecap="round"/>
</g>
</svg>
