<svg width="526" height="526" viewBox="0 0 526 526" fill="none" xmlns="http://www.w3.org/2000/svg">
  <g clip-path="url(#clip0_373_1137)">
    <rect x="13" y="13" width="500" height="500" rx="250" fill="#002623" />
    <mask id="mask0_373_1137" style="mask-type:alpha" maskUnits="userSpaceOnUse" x="0" y="201" width="289" height="168">
      <path d="M288.497 273.5C262 307.5 266.5 364 266.5 364C266.5 364 202.902 376.719 153 359.5C114.49 346.212 69.5498 321.319 36.5001 297.5C24.2042 288.638 6.00009 273.5 6.00009 273.5L0 236C0 236 43.0742 190.349 127.501 204.5C211.927 218.65 278.5 246 288.497 273.5Z" fill="#D9D9D9" />
    </mask>
    <g mask="url(#mask0_373_1137)">
      <path d="M4.39877 223.505C4.39877 223.505 40.3155 207.532 61.5153 203.622C82.9262 199.674 117 200.007 117 200.007C117 200.007 76.0735 221.875 53.3558 241.581C34.0189 258.354 8.47853 294 8.47853 294C8.47853 294 -16 272.536 -16 258.753C-16 244.97 4.39877 223.505 4.39877 223.505Z" fill="#9DC183" />
      <path d="M162.215 206.006C201.249 205.5 263 238.386 263 238.386C263 238.386 194.849 252.489 158.397 270.767C122.87 288.582 82.0448 330 82.0448 330C82.0448 330 58.8955 322.661 46.3898 313.712C36.1659 306.395 23 290.068 23 290.068C23 290.068 41.4679 261.239 59.9026 246.284C91.9262 220.306 122.782 206.517 162.215 206.006Z" fill="#9DC183" />
      <path d="M161 279.852C190.058 267.491 247.346 250.292 278.438 254.708C293.088 256.788 295 266.495 295 266.495C295 266.495 277.479 294.873 272.416 315.211C267.24 336.001 268.652 367.072 268.652 367.072C268.652 367.072 207.773 375.91 170.787 367.072C139.175 359.519 94 334.07 94 334.07C94 334.07 123.547 295.784 161 279.852Z" fill="#9DC183" />
    </g>
    <path d="M16 314.313C16 314.313 66.506 349.631 107.562 365.173C157.745 384.169 182.41 386.243 236.185 386.243C320.244 386.243 381.128 348.671 434.569 283.797C466.686 244.81 494 168 494 168C494 168 496.054 198.764 494.157 217.68C492.013 239.055 489.693 251.193 482.53 271.446C475.548 291.185 469.69 301.67 458.549 319.399C448.102 336.026 441.376 344.957 428.029 359.36C392.556 397.641 362.693 415.564 313.94 434.197C271.309 450.49 246.196 456.063 200.577 457.447C153.36 458.879 114.083 459.66 76.3146 431.29C55.9373 415.984 45.8451 395.426 33.4404 373.165C19.1131 347.454 16 314.313 16 314.313Z" fill="#57B492" />
    <path d="M285.628 318.864C288.563 306.005 292.132 299.129 298.898 287.816C305.952 276.023 310.632 269.447 321.016 260.464C332.536 250.5 341.044 247.475 354.93 241.244C378.072 230.86 394.35 234.385 417.598 224.242C451.818 209.311 494 168 494 168C494 168 484.371 206.686 472.892 229.416C462.647 249.704 456.244 261.197 441.19 278.206C424.476 297.09 411.958 304.784 391.056 318.864C367.213 334.925 353.693 345.342 326.177 353.608C310.759 358.239 285.628 361 285.628 361C285.628 361 281.966 334.904 285.628 318.864Z" fill="#57B492" />
    <path d="M424.19 212.761C329.406 222.434 303.359 262.616 303.359 262.616C303.359 262.616 285.064 238.107 223.791 212.761C223.791 156.048 274.262 101.144 329.406 101.144C384.551 101.144 424.19 156.048 424.19 212.761Z" fill="#F6AE2D" />
    <path fill-rule="evenodd" clip-rule="evenodd" d="M45.9975 123.46C43.1611 130.119 40.2094 137.048 36.4264 144.395C25.5455 165.528 14 214 14 214C14 214 33.5248 204.208 47.5 201.5C55.5199 199.946 72.6399 196.902 81.9609 195.256C100.115 106.648 178.524 40 272.5 40C364.216 40 441.105 103.482 461.626 188.903C463.03 187.818 475.81 177.918 480.476 173.5C483.951 170.21 493.5 159.5 493.5 159.5C493.5 159.5 486.964 124.932 480.476 104.027C472.742 79.106 449.918 67.3005 428.03 55.9792C421.499 52.6007 415.05 49.2654 409.111 45.6374C387.118 32.2027 373.789 26.1742 341.35 21.1281C332.604 19.7675 324.929 18.0139 317.341 16.2801C304.202 13.2781 291.323 10.3355 273.589 9.59457C265.808 9.26947 258.174 8.55273 250.626 7.84413C230.898 5.99189 211.762 4.19529 192.132 9.59451C166.689 16.5926 153.266 25.9744 133.603 39.7172C130.9 41.6064 128.079 43.5782 125.092 45.6374C118.321 50.3064 111.373 54.2042 104.529 58.0441C91.6559 65.2667 79.148 72.2842 68.8651 83.843C57.3677 96.7671 51.9348 109.521 45.9975 123.46Z" fill="#EF7B45" />
    <path fill-rule="evenodd" clip-rule="evenodd" d="M195.999 485C364.999 485 501.999 367.027 501.999 221.5C501.999 201.165 499.324 181.368 494.261 162.355C494.42 160.822 494.499 160 494.499 160C494.499 160 524.96 234.435 522.499 260.5C519.801 289.081 497.754 362.126 497.754 362.126C497.754 362.126 464.895 427.539 429.994 456.558C401.14 480.55 380.396 488.987 344.932 501.252C310.546 513.144 289.764 519.118 253.383 518.552C219.764 518.03 198.967 516.582 169.042 501.252C163.659 498.494 144.772 488.785 122.556 477.361C146.083 482.352 170.682 485 195.999 485Z" fill="#57B492" fill-opacity="0.45" />
    <path fill-rule="evenodd" clip-rule="evenodd" d="M213.608 55.0227C208.409 56.4506 203.28 58.1158 198.972 60.0001C186.454 65.475 178.625 70.1081 167.472 78.0001C150.092 90.2989 142.114 98.1533 128.472 114.5C116.707 128.597 110.988 137.482 102.972 154C95.9117 168.549 92 194.5 92 194.5C92 194.5 104.626 192.732 119 193C125.592 193.123 131.67 193.121 136.06 193.089C136.02 192.075 136 191.046 136 190C136 142.206 168.872 76.9387 213.608 55.0227Z" fill="#EF7B45" />
  </g>
  <rect x="6.5" y="6.5" width="513" height="513" rx="256.5" stroke="white" stroke-width="13" />
  <defs>
    <clipPath id="clip0_373_1137">
      <rect x="13" y="13" width="500" height="500" rx="250" fill="white" />
    </clipPath>
  </defs>
</svg>
