<svg width="73" height="105" viewBox="0 0 73 105" fill="none" xmlns="http://www.w3.org/2000/svg">
<path d="M36.4998 100.787C54.971 100.787 70 85.7824 70 67.3377C70 49.2736 38.604 8.27499 37.2669 6.53913L36.4998 5.54736L35.7327 6.54561C34.3975 8.27823 3 49.2797 3 67.341C3.00036 85.7824 18.029 100.787 36.4998 100.787Z" fill="white"/>
<path fill-rule="evenodd" clip-rule="evenodd" d="M36.7191 36.224C36.6967 36.0532 36.6852 35.8793 36.6852 35.7027C36.6852 33.3939 38.6532 31.5222 41.0809 31.5222C43.5086 31.5222 45.4766 33.3939 45.4766 35.7027C45.4766 37.7316 43.9569 39.4228 41.9411 39.8032C37.4135 41.4171 37.3892 45.8627 37.3551 52.1099C37.3376 55.3146 37.3175 58.9934 36.6856 63.0073L36.7191 36.224Z" fill="#002623"/>
<path d="M42.0498 34.7002C42.3247 34.6743 42.5686 34.8762 42.5945 35.1511C42.6204 35.426 42.4185 35.6699 42.1436 35.6958L42.0498 34.7002ZM38.1615 40.0643L38.63 40.2391L38.63 40.2391L38.1615 40.0643ZM42.1436 35.6958C41.9006 35.7187 41.3622 35.9311 40.6954 36.6349C40.0403 37.3264 39.2931 38.4616 38.63 40.2391L37.693 39.8896C38.392 38.0161 39.2025 36.7568 39.9695 35.9472C40.7248 35.1498 41.4729 34.7546 42.0498 34.7002L42.1436 35.6958ZM38.63 40.2391C37.9212 42.1388 37.5539 45.1984 37.3694 48.3262C37.1859 51.4359 37.1858 54.5465 37.1858 56.5172H36.1858C36.1858 54.5484 36.1857 51.4103 36.3711 48.2673C36.5555 45.1424 36.9261 41.9453 37.693 39.8896L38.63 40.2391Z" fill="white"/>
<path fill-rule="evenodd" clip-rule="evenodd" d="M36.6838 51.8669C36.6462 51.5798 36.6268 51.2873 36.6268 50.9905C36.6268 47.1183 39.9274 43.9792 43.9989 43.9792C48.0705 43.9792 51.3711 47.1183 51.3711 50.9905C51.3711 54.3589 48.8736 57.1724 45.5436 57.8476C37.868 60.7794 37.8335 71.4132 37.7926 84.0328C37.7716 90.5231 37.7488 97.5387 36.684 104.302L36.6838 51.8669Z" fill="#57B492"/>
<path d="M45.1402 48.668C45.4151 48.6419 45.6591 48.8435 45.6853 49.1184C45.7114 49.3933 45.5097 49.6374 45.2348 49.6635L45.1402 48.668ZM45.2348 49.6635C44.2309 49.759 41.3057 51.249 39.4805 57.0352L38.5268 56.7344C40.4119 50.7583 43.5674 48.8176 45.1402 48.668L45.2348 49.6635ZM39.4805 57.0352C38.573 59.9122 37.9953 64.8191 37.6473 69.8304C37.3004 74.8252 37.1847 79.8676 37.1847 82.9824H36.1847C36.1847 79.8485 36.3009 74.7827 36.6497 69.7611C36.9973 64.7561 37.5792 59.7386 38.5268 56.7344L39.4805 57.0352Z" fill="#002623"/>
<path fill-rule="evenodd" clip-rule="evenodd" d="M27.9386 46.1479C24.5533 45.5134 22 42.6748 22 39.2691C22 35.3969 25.3006 32.2578 29.3721 32.2578C33.4164 32.2578 36.7001 35.355 36.7438 39.1915V38.8739C36.7533 39.0003 36.7543 39.156 36.744 39.3354C36.7439 39.3392 36.7439 39.3429 36.7438 39.3467V85.0611C35.684 78.3293 35.6503 72.1594 35.6209 66.7847C35.5637 56.3114 35.523 48.8573 27.9386 46.1479Z" fill="#57B492"/>
<path d="M28.2309 38.3763C27.956 38.3501 27.712 38.5518 27.6858 38.8267C27.6597 39.1016 27.8614 39.3456 28.1363 39.3718L28.2309 38.3763ZM34.3675 46.593L33.8982 46.7657L34.3675 46.593ZM28.1363 39.3718C28.6126 39.4171 29.5203 39.8056 30.5945 40.9486C31.657 42.0792 32.8495 43.916 33.8982 46.7657L34.8367 46.4204C33.7526 43.4747 32.4974 41.5132 31.3232 40.2638C30.1607 39.0268 29.0429 38.4535 28.2309 38.3763L28.1363 39.3718ZM33.8982 46.7657C35.2185 50.3534 35.6067 55.4228 35.655 60.4278C35.6791 62.9216 35.6189 65.383 35.5525 67.616C35.4863 69.8435 35.4134 71.8539 35.4134 73.4258H36.4134C36.4134 71.8734 36.4855 69.8864 36.5521 67.6457C36.6186 65.4103 36.6792 62.9325 36.655 60.4181C36.6066 55.4068 36.2218 50.1842 34.8367 46.4204L33.8982 46.7657Z" fill="#002623"/>
<path fill-rule="evenodd" clip-rule="evenodd" d="M36.6877 59.2562C36.725 58.9702 36.7443 58.6788 36.7443 58.3831C36.7443 54.5109 33.4437 51.3718 29.3721 51.3718C25.3006 51.3718 22 54.5109 22 58.3831C22 61.7894 24.5541 64.6283 27.9402 65.2622C35.523 67.9721 35.5638 75.4259 35.6209 85.8984C35.6503 91.2732 35.684 97.4431 36.7438 104.175L36.6877 59.2562Z" fill="#002623"/>
<path d="M27.7969 56.5171C29.0852 56.6396 32.1256 58.355 33.9807 64.2361C37.4592 75.2633 36.2997 85.9229 36.2997 92.1716" stroke="white" stroke-linecap="round"/>
<path d="M38.4553 5.6238L38.4534 5.6214L37.6863 4.62964L36.496 3.09066L35.3104 4.63337L34.5446 5.62999C34.5443 5.63038 34.544 5.63078 34.5437 5.63117C33.8579 6.52105 25.6458 17.2434 17.5965 30.0205C13.5711 36.4102 9.56747 43.3435 6.56523 49.8362C3.5868 56.2774 1.5 62.4789 1.5 67.341C1.50038 86.6131 17.2028 102.287 36.4998 102.287C55.7973 102.287 71.5 86.613 71.5 67.3377C71.5 62.4749 69.4133 56.2732 66.435 49.8317C63.4328 43.3388 59.4294 36.4056 55.404 30.0158C47.3512 17.2329 39.1352 6.50656 38.4553 5.6238Z" stroke="#002623" stroke-width="3"/>
</svg>
