<svg width="75" height="75" viewBox="0 0 75 75" fill="none" xmlns="http://www.w3.org/2000/svg">
<rect width="75" height="75" fill="#D9D9D9"/>
<path d="M21.6261 43V32.8182H24.087V41.0014H28.3228V43H21.6261ZM33.1614 43.1442C32.3593 43.1442 31.6699 42.9801 31.0932 42.652C30.5198 42.3205 30.0774 41.8598 29.7658 41.2699C29.4576 40.6766 29.3034 39.9889 29.3034 39.2067C29.3034 38.4212 29.4576 37.7334 29.7658 37.1435C30.0774 36.5502 30.5198 36.0895 31.0932 35.7614C31.6699 35.4299 32.3593 35.2642 33.1614 35.2642C33.9635 35.2642 34.6512 35.4299 35.2246 35.7614C35.8013 36.0895 36.2438 36.5502 36.552 37.1435C36.8636 37.7334 37.0194 38.4212 37.0194 39.2067C37.0194 39.9889 36.8636 40.6766 36.552 41.2699C36.2438 41.8598 35.8013 42.3205 35.2246 42.652C34.6512 42.9801 33.9635 43.1442 33.1614 43.1442ZM33.1763 41.3097C33.468 41.3097 33.7149 41.2202 33.9171 41.0412C34.1193 40.8622 34.2734 40.6136 34.3794 40.2955C34.4888 39.9773 34.5435 39.6094 34.5435 39.1918C34.5435 38.7675 34.4888 38.3963 34.3794 38.0781C34.2734 37.7599 34.1193 37.5114 33.9171 37.3324C33.7149 37.1534 33.468 37.0639 33.1763 37.0639C32.8747 37.0639 32.6195 37.1534 32.4107 37.3324C32.2052 37.5114 32.0478 37.7599 31.9384 38.0781C31.8323 38.3963 31.7793 38.7675 31.7793 39.1918C31.7793 39.6094 31.8323 39.9773 31.9384 40.2955C32.0478 40.6136 32.2052 40.8622 32.4107 41.0412C32.6195 41.2202 32.8747 41.3097 33.1763 41.3097ZM41.8244 46.0227C41.0985 46.0227 40.4771 45.9216 39.96 45.7195C39.443 45.5173 39.037 45.2405 38.742 44.8892C38.447 44.5379 38.2697 44.1402 38.21 43.696L40.5119 43.5668C40.555 43.7225 40.6345 43.8584 40.7505 43.9744C40.8699 44.0904 41.024 44.1799 41.2129 44.2429C41.4051 44.3059 41.6305 44.3374 41.889 44.3374C42.2967 44.3374 42.6331 44.2379 42.8983 44.0391C43.1667 43.8435 43.301 43.5005 43.301 43.0099V41.6676H43.2164C43.1203 41.9029 42.9745 42.1134 42.7789 42.299C42.5834 42.4846 42.3398 42.6304 42.0481 42.7365C41.7598 42.8426 41.4283 42.8956 41.0538 42.8956C40.497 42.8956 39.9866 42.7663 39.5225 42.5078C39.0618 42.246 38.6923 41.8416 38.4139 41.2947C38.1388 40.7446 38.0012 40.0369 38.0012 39.1719C38.0012 38.2803 38.1438 37.5462 38.4288 36.9695C38.7138 36.3894 39.0867 35.9602 39.5474 35.6818C40.0114 35.4034 40.5102 35.2642 41.0439 35.2642C41.4449 35.2642 41.7879 35.3338 42.073 35.473C42.3613 35.6089 42.5983 35.7846 42.7839 36C42.9695 36.2154 43.1104 36.4392 43.2065 36.6712H43.2761V35.3636H45.6973V43.0298C45.6973 43.6761 45.5349 44.2214 45.21 44.6655C44.8852 45.1096 44.4312 45.446 43.8478 45.6747C43.2645 45.9067 42.59 46.0227 41.8244 46.0227ZM41.899 41.1257C42.194 41.1257 42.4458 41.0478 42.6547 40.892C42.8635 40.7363 43.0242 40.5125 43.1369 40.2209C43.2496 39.9292 43.3059 39.5795 43.3059 39.1719C43.3059 38.7576 43.2496 38.4013 43.1369 38.103C43.0275 37.8014 42.8668 37.5694 42.6547 37.407C42.4458 37.2446 42.194 37.1634 41.899 37.1634C41.5974 37.1634 41.3422 37.2462 41.1333 37.4119C40.9245 37.5777 40.7654 37.8113 40.6561 38.1129C40.55 38.4112 40.497 38.7642 40.497 39.1719C40.497 39.5795 40.5517 39.9292 40.661 40.2209C40.7704 40.5125 40.9279 40.7363 41.1333 40.892C41.3422 41.0478 41.5974 41.1257 41.899 41.1257ZM50.8118 43.1442C50.0097 43.1442 49.3203 42.9801 48.7436 42.652C48.1702 42.3205 47.7277 41.8598 47.4162 41.2699C47.108 40.6766 46.9538 39.9889 46.9538 39.2067C46.9538 38.4212 47.108 37.7334 47.4162 37.1435C47.7277 36.5502 48.1702 36.0895 48.7436 35.7614C49.3203 35.4299 50.0097 35.2642 50.8118 35.2642C51.6139 35.2642 52.3016 35.4299 52.875 35.7614C53.4517 36.0895 53.8942 36.5502 54.2024 37.1435C54.514 37.7334 54.6697 38.4212 54.6697 39.2067C54.6697 39.9889 54.514 40.6766 54.2024 41.2699C53.8942 41.8598 53.4517 42.3205 52.875 42.652C52.3016 42.9801 51.6139 43.1442 50.8118 43.1442ZM50.8267 41.3097C51.1184 41.3097 51.3653 41.2202 51.5675 41.0412C51.7696 40.8622 51.9238 40.6136 52.0298 40.2955C52.1392 39.9773 52.1939 39.6094 52.1939 39.1918C52.1939 38.7675 52.1392 38.3963 52.0298 38.0781C51.9238 37.7599 51.7696 37.5114 51.5675 37.3324C51.3653 37.1534 51.1184 37.0639 50.8267 37.0639C50.5251 37.0639 50.2699 37.1534 50.0611 37.3324C49.8556 37.5114 49.6982 37.7599 49.5888 38.0781C49.4827 38.3963 49.4297 38.7675 49.4297 39.1918C49.4297 39.6094 49.4827 39.9773 49.5888 40.2955C49.6982 40.6136 49.8556 40.8622 50.0611 41.0412C50.2699 41.2202 50.5251 41.3097 50.8267 41.3097Z" fill="black"/>
</svg>
