<svg width="857" height="192" viewBox="0 0 857 192" fill="none" xmlns="http://www.w3.org/2000/svg">
<g filter="url(#filter0_d_369_1931)">
<mask id="path-1-outside-1_369_1931" maskUnits="userSpaceOnUse" x="6" y="47" width="851" height="99" fill="black">
<rect fill="white" x="6" y="47" width="851" height="99"/>
<path d="M82.688 141H68.096L24.192 74.568V141H9.6V51.912H24.192L68.096 118.216V51.912H82.688V141ZM169.562 70.472V141H154.97V132.68C152.666 135.581 149.637 137.885 145.882 139.592C142.213 141.213 138.287 142.024 134.106 142.024C128.559 142.024 123.567 140.872 119.13 138.568C114.778 136.264 111.322 132.851 108.762 128.328C106.287 123.805 105.05 118.344 105.05 111.944V70.472H119.514V109.768C119.514 116.083 121.093 120.947 124.25 124.36C127.407 127.688 131.717 129.352 137.178 129.352C142.639 129.352 146.949 127.688 150.106 124.36C153.349 120.947 154.97 116.083 154.97 109.768V70.472H169.562ZM207.247 80.712C209.38 77.128 212.196 74.3547 215.695 72.392C219.279 70.344 223.503 69.32 228.367 69.32V84.424H224.655C218.938 84.424 214.586 85.8747 211.599 88.776C208.698 91.6773 207.247 96.712 207.247 103.88V141H192.655V70.472H207.247V80.712ZM262.644 82.376V121.416C262.644 124.061 263.241 125.981 264.436 127.176C265.716 128.285 267.849 128.84 270.836 128.84H279.796V141H268.276C261.705 141 256.671 139.464 253.172 136.392C249.673 133.32 247.924 128.328 247.924 121.416V82.376H239.604V70.472H247.924V52.936H262.644V70.472H279.796V82.376H262.644ZM360.957 70.472V141H346.365V132.68C344.061 135.581 341.032 137.885 337.277 139.592C333.608 141.213 329.682 142.024 325.501 142.024C319.954 142.024 314.962 140.872 310.525 138.568C306.173 136.264 302.717 132.851 300.157 128.328C297.682 123.805 296.445 118.344 296.445 111.944V70.472H310.909V109.768C310.909 116.083 312.488 120.947 315.645 124.36C318.802 127.688 323.112 129.352 328.573 129.352C334.034 129.352 338.344 127.688 341.501 124.36C344.744 120.947 346.365 116.083 346.365 109.768V70.472H360.957ZM398.642 80.712C400.775 77.128 403.591 74.3547 407.09 72.392C410.674 70.344 414.898 69.32 419.762 69.32V84.424H416.05C410.333 84.424 405.981 85.8747 402.994 88.776C400.093 91.6773 398.642 96.712 398.642 103.88V141H384.05V70.472H398.642V80.712ZM432.151 105.416C432.151 98.3333 433.602 92.0613 436.503 86.6C439.49 81.1387 443.5 76.9147 448.535 73.928C453.655 70.856 459.287 69.32 465.431 69.32C470.978 69.32 475.799 70.4293 479.895 72.648C484.076 74.7813 487.404 77.4693 489.879 80.712V70.472H504.599V141H489.879V130.504C487.404 133.832 484.034 136.605 479.767 138.824C475.5 141.043 470.636 142.152 465.175 142.152C459.116 142.152 453.57 140.616 448.535 137.544C443.5 134.387 439.49 130.035 436.503 124.488C433.602 118.856 432.151 112.499 432.151 105.416ZM489.879 105.672C489.879 100.808 488.855 96.584 486.807 93C484.844 89.416 482.242 86.6853 478.999 84.808C475.756 82.9307 472.258 81.992 468.503 81.992C464.748 81.992 461.25 82.9307 458.007 84.808C454.764 86.6 452.119 89.288 450.071 92.872C448.108 96.3707 447.127 100.552 447.127 105.416C447.127 110.28 448.108 114.547 450.071 118.216C452.119 121.885 454.764 124.701 458.007 126.664C461.335 128.541 464.834 129.48 468.503 129.48C472.258 129.48 475.756 128.541 478.999 126.664C482.242 124.787 484.844 122.056 486.807 118.472C488.855 114.803 489.879 110.536 489.879 105.672ZM591.989 77.64C589.685 73.2027 586.485 69.8747 582.389 67.656C578.293 65.352 573.557 64.2 568.181 64.2C562.293 64.2 557.045 65.5227 552.437 68.168C547.829 70.8133 544.202 74.568 541.557 79.432C538.997 84.296 537.717 89.928 537.717 96.328C537.717 102.728 538.997 108.403 541.557 113.352C544.202 118.216 547.829 121.971 552.437 124.616C557.045 127.261 562.293 128.584 568.181 128.584C576.117 128.584 582.56 126.365 587.509 121.928C592.458 117.491 595.488 111.475 596.597 103.88H563.189V92.232H612.213V103.624C611.274 110.536 608.8 116.893 604.789 122.696C600.864 128.499 595.701 133.149 589.301 136.648C582.986 140.061 575.946 141.768 568.181 141.768C559.818 141.768 552.181 139.848 545.269 136.008C538.357 132.083 532.853 126.664 528.757 119.752C524.746 112.84 522.741 105.032 522.741 96.328C522.741 87.624 524.746 79.816 528.757 72.904C532.853 65.992 538.357 60.616 545.269 56.776C552.266 52.8507 559.904 50.888 568.181 50.888C577.653 50.888 586.058 53.2347 593.397 57.928C600.821 62.536 606.197 69.1067 609.525 77.64H591.989ZM645.037 80.712C647.17 77.128 649.986 74.3547 653.485 72.392C657.069 70.344 661.293 69.32 666.157 69.32V84.424H662.445C656.728 84.424 652.376 85.8747 649.389 88.776C646.488 91.6773 645.037 96.712 645.037 103.88V141H630.445V70.472H645.037V80.712ZM852.31 70.472L830.422 141H815.062L800.854 88.904L786.646 141H771.286L749.27 70.472H764.118L778.838 127.176L793.814 70.472H809.046L823.382 126.92L837.974 70.472H852.31Z"/>
</mask>
<path d="M82.688 141H68.096L24.192 74.568V141H9.6V51.912H24.192L68.096 118.216V51.912H82.688V141ZM169.562 70.472V141H154.97V132.68C152.666 135.581 149.637 137.885 145.882 139.592C142.213 141.213 138.287 142.024 134.106 142.024C128.559 142.024 123.567 140.872 119.13 138.568C114.778 136.264 111.322 132.851 108.762 128.328C106.287 123.805 105.05 118.344 105.05 111.944V70.472H119.514V109.768C119.514 116.083 121.093 120.947 124.25 124.36C127.407 127.688 131.717 129.352 137.178 129.352C142.639 129.352 146.949 127.688 150.106 124.36C153.349 120.947 154.97 116.083 154.97 109.768V70.472H169.562ZM207.247 80.712C209.38 77.128 212.196 74.3547 215.695 72.392C219.279 70.344 223.503 69.32 228.367 69.32V84.424H224.655C218.938 84.424 214.586 85.8747 211.599 88.776C208.698 91.6773 207.247 96.712 207.247 103.88V141H192.655V70.472H207.247V80.712ZM262.644 82.376V121.416C262.644 124.061 263.241 125.981 264.436 127.176C265.716 128.285 267.849 128.84 270.836 128.84H279.796V141H268.276C261.705 141 256.671 139.464 253.172 136.392C249.673 133.32 247.924 128.328 247.924 121.416V82.376H239.604V70.472H247.924V52.936H262.644V70.472H279.796V82.376H262.644ZM360.957 70.472V141H346.365V132.68C344.061 135.581 341.032 137.885 337.277 139.592C333.608 141.213 329.682 142.024 325.501 142.024C319.954 142.024 314.962 140.872 310.525 138.568C306.173 136.264 302.717 132.851 300.157 128.328C297.682 123.805 296.445 118.344 296.445 111.944V70.472H310.909V109.768C310.909 116.083 312.488 120.947 315.645 124.36C318.802 127.688 323.112 129.352 328.573 129.352C334.034 129.352 338.344 127.688 341.501 124.36C344.744 120.947 346.365 116.083 346.365 109.768V70.472H360.957ZM398.642 80.712C400.775 77.128 403.591 74.3547 407.09 72.392C410.674 70.344 414.898 69.32 419.762 69.32V84.424H416.05C410.333 84.424 405.981 85.8747 402.994 88.776C400.093 91.6773 398.642 96.712 398.642 103.88V141H384.05V70.472H398.642V80.712ZM432.151 105.416C432.151 98.3333 433.602 92.0613 436.503 86.6C439.49 81.1387 443.5 76.9147 448.535 73.928C453.655 70.856 459.287 69.32 465.431 69.32C470.978 69.32 475.799 70.4293 479.895 72.648C484.076 74.7813 487.404 77.4693 489.879 80.712V70.472H504.599V141H489.879V130.504C487.404 133.832 484.034 136.605 479.767 138.824C475.5 141.043 470.636 142.152 465.175 142.152C459.116 142.152 453.57 140.616 448.535 137.544C443.5 134.387 439.49 130.035 436.503 124.488C433.602 118.856 432.151 112.499 432.151 105.416ZM489.879 105.672C489.879 100.808 488.855 96.584 486.807 93C484.844 89.416 482.242 86.6853 478.999 84.808C475.756 82.9307 472.258 81.992 468.503 81.992C464.748 81.992 461.25 82.9307 458.007 84.808C454.764 86.6 452.119 89.288 450.071 92.872C448.108 96.3707 447.127 100.552 447.127 105.416C447.127 110.28 448.108 114.547 450.071 118.216C452.119 121.885 454.764 124.701 458.007 126.664C461.335 128.541 464.834 129.48 468.503 129.48C472.258 129.48 475.756 128.541 478.999 126.664C482.242 124.787 484.844 122.056 486.807 118.472C488.855 114.803 489.879 110.536 489.879 105.672ZM591.989 77.64C589.685 73.2027 586.485 69.8747 582.389 67.656C578.293 65.352 573.557 64.2 568.181 64.2C562.293 64.2 557.045 65.5227 552.437 68.168C547.829 70.8133 544.202 74.568 541.557 79.432C538.997 84.296 537.717 89.928 537.717 96.328C537.717 102.728 538.997 108.403 541.557 113.352C544.202 118.216 547.829 121.971 552.437 124.616C557.045 127.261 562.293 128.584 568.181 128.584C576.117 128.584 582.56 126.365 587.509 121.928C592.458 117.491 595.488 111.475 596.597 103.88H563.189V92.232H612.213V103.624C611.274 110.536 608.8 116.893 604.789 122.696C600.864 128.499 595.701 133.149 589.301 136.648C582.986 140.061 575.946 141.768 568.181 141.768C559.818 141.768 552.181 139.848 545.269 136.008C538.357 132.083 532.853 126.664 528.757 119.752C524.746 112.84 522.741 105.032 522.741 96.328C522.741 87.624 524.746 79.816 528.757 72.904C532.853 65.992 538.357 60.616 545.269 56.776C552.266 52.8507 559.904 50.888 568.181 50.888C577.653 50.888 586.058 53.2347 593.397 57.928C600.821 62.536 606.197 69.1067 609.525 77.64H591.989ZM645.037 80.712C647.17 77.128 649.986 74.3547 653.485 72.392C657.069 70.344 661.293 69.32 666.157 69.32V84.424H662.445C656.728 84.424 652.376 85.8747 649.389 88.776C646.488 91.6773 645.037 96.712 645.037 103.88V141H630.445V70.472H645.037V80.712ZM852.31 70.472L830.422 141H815.062L800.854 88.904L786.646 141H771.286L749.27 70.472H764.118L778.838 127.176L793.814 70.472H809.046L823.382 126.92L837.974 70.472H852.31Z" fill="white"/>
<path d="M82.688 141V144H85.688V141H82.688ZM68.096 141L65.5932 142.654L66.4827 144H68.096V141ZM24.192 74.568L26.6948 72.9139L21.192 64.5875V74.568H24.192ZM24.192 141V144H27.192V141H24.192ZM9.6 141H6.6V144H9.6V141ZM9.6 51.912V48.912H6.6V51.912H9.6ZM24.192 51.912L26.6933 50.2557L25.8036 48.912H24.192V51.912ZM68.096 118.216L65.5947 119.872L71.096 128.18V118.216H68.096ZM68.096 51.912V48.912H65.096V51.912H68.096ZM82.688 51.912H85.688V48.912H82.688V51.912ZM82.688 138H68.096V144H82.688V138ZM70.5988 139.346L26.6948 72.9139L21.6892 76.2221L65.5932 142.654L70.5988 139.346ZM21.192 74.568V141H27.192V74.568H21.192ZM24.192 138H9.6V144H24.192V138ZM12.6 141V51.912H6.6V141H12.6ZM9.6 54.912H24.192V48.912H9.6V54.912ZM21.6907 53.5683L65.5947 119.872L70.5973 116.56L26.6933 50.2557L21.6907 53.5683ZM71.096 118.216V51.912H65.096V118.216H71.096ZM68.096 54.912H82.688V48.912H68.096V54.912ZM79.688 51.912V141H85.688V51.912H79.688ZM169.562 70.472H172.562V67.472H169.562V70.472ZM169.562 141V144H172.562V141H169.562ZM154.97 141H151.97V144H154.97V141ZM154.97 132.68H157.97V124.078L152.621 130.814L154.97 132.68ZM145.882 139.592L147.094 142.336L147.109 142.33L147.123 142.323L145.882 139.592ZM119.13 138.568L117.726 141.219L117.737 141.225L117.748 141.23L119.13 138.568ZM108.762 128.328L106.13 129.768L106.141 129.787L106.151 129.806L108.762 128.328ZM105.05 70.472V67.472H102.05V70.472H105.05ZM119.514 70.472H122.514V67.472H119.514V70.472ZM124.25 124.36L122.048 126.397L122.061 126.411L122.074 126.425L124.25 124.36ZM150.106 124.36L147.931 122.294L147.93 122.295L150.106 124.36ZM154.97 70.472V67.472H151.97V70.472H154.97ZM166.562 70.472V141H172.562V70.472H166.562ZM169.562 138H154.97V144H169.562V138ZM157.97 141V132.68H151.97V141H157.97ZM152.621 130.814C150.644 133.303 148.012 135.328 144.641 136.861L147.123 142.323C151.261 140.442 154.688 137.86 157.319 134.546L152.621 130.814ZM144.67 136.848C141.398 138.293 137.888 139.024 134.106 139.024V145.024C138.687 145.024 143.027 144.133 147.094 142.336L144.67 136.848ZM134.106 139.024C128.987 139.024 124.478 137.964 120.512 135.906L117.748 141.23C122.657 143.78 128.132 145.024 134.106 145.024V139.024ZM120.534 135.917C116.716 133.896 113.667 130.903 111.373 126.85L106.151 129.806C108.977 134.798 112.84 138.632 117.726 141.219L120.534 135.917ZM111.394 126.888C109.212 122.901 108.05 117.96 108.05 111.944H102.05C102.05 118.728 103.362 124.71 106.13 129.768L111.394 126.888ZM108.05 111.944V70.472H102.05V111.944H108.05ZM105.05 73.472H119.514V67.472H105.05V73.472ZM116.514 70.472V109.768H122.514V70.472H116.514ZM116.514 109.768C116.514 116.564 118.218 122.256 122.048 126.397L126.452 122.323C123.968 119.637 122.514 115.602 122.514 109.768H116.514ZM122.074 126.425C125.904 130.463 131.063 132.352 137.178 132.352V126.352C132.37 126.352 128.91 124.913 126.426 122.295L122.074 126.425ZM137.178 132.352C143.293 132.352 148.452 130.463 152.282 126.425L147.93 122.295C145.446 124.913 141.986 126.352 137.178 126.352V132.352ZM152.281 126.426C156.213 122.287 157.97 116.583 157.97 109.768H151.97C151.97 115.582 150.484 119.606 147.931 122.294L152.281 126.426ZM157.97 109.768V70.472H151.97V109.768H157.97ZM154.97 73.472H169.562V67.472H154.97V73.472ZM207.247 80.712H204.247V91.6173L209.825 82.2464L207.247 80.712ZM215.695 72.392L217.163 75.0084L217.173 75.0026L217.183 74.9967L215.695 72.392ZM228.367 69.32H231.367V66.32H228.367V69.32ZM228.367 84.424V87.424H231.367V84.424H228.367ZM211.599 88.776L209.509 86.6242L209.493 86.6393L209.478 86.6547L211.599 88.776ZM207.247 141V144H210.247V141H207.247ZM192.655 141H189.655V144H192.655V141ZM192.655 70.472V67.472H189.655V70.472H192.655ZM207.247 70.472H210.247V67.472H207.247V70.472ZM209.825 82.2464C211.7 79.0954 214.141 76.7035 217.163 75.0084L214.227 69.7756C210.252 72.0059 207.06 75.1606 204.669 79.1775L209.825 82.2464ZM217.183 74.9967C220.239 73.2506 223.931 72.32 228.367 72.32V66.32C223.075 66.32 218.319 67.4374 214.207 69.7873L217.183 74.9967ZM225.367 69.32V84.424H231.367V69.32H225.367ZM228.367 81.424H224.655V87.424H228.367V81.424ZM224.655 81.424C218.453 81.424 213.237 83.0025 209.509 86.6242L213.689 90.9278C215.934 88.7468 219.422 87.424 224.655 87.424V81.424ZM209.478 86.6547C205.718 90.4148 204.247 96.4666 204.247 103.88H210.247C210.247 96.9574 211.678 92.9398 213.72 90.8973L209.478 86.6547ZM204.247 103.88V141H210.247V103.88H204.247ZM207.247 138H192.655V144H207.247V138ZM195.655 141V70.472H189.655V141H195.655ZM192.655 73.472H207.247V67.472H192.655V73.472ZM204.247 70.472V80.712H210.247V70.472H204.247ZM262.644 82.376V79.376H259.644V82.376H262.644ZM264.436 127.176L262.315 129.297L262.39 129.373L262.471 129.443L264.436 127.176ZM279.796 128.84H282.796V125.84H279.796V128.84ZM279.796 141V144H282.796V141H279.796ZM253.172 136.392L251.193 138.646L251.193 138.646L253.172 136.392ZM247.924 82.376H250.924V79.376H247.924V82.376ZM239.604 82.376H236.604V85.376H239.604V82.376ZM239.604 70.472V67.472H236.604V70.472H239.604ZM247.924 70.472V73.472H250.924V70.472H247.924ZM247.924 52.936V49.936H244.924V52.936H247.924ZM262.644 52.936H265.644V49.936H262.644V52.936ZM262.644 70.472H259.644V73.472H262.644V70.472ZM279.796 70.472H282.796V67.472H279.796V70.472ZM279.796 82.376V85.376H282.796V82.376H279.796ZM259.644 82.376V121.416H265.644V82.376H259.644ZM259.644 121.416C259.644 124.42 260.31 127.292 262.315 129.297L266.557 125.055C266.173 124.67 265.644 123.703 265.644 121.416H259.644ZM262.471 129.443C264.582 131.272 267.625 131.84 270.836 131.84V125.84C268.073 125.84 266.85 125.298 266.401 124.909L262.471 129.443ZM270.836 131.84H279.796V125.84H270.836V131.84ZM276.796 128.84V141H282.796V128.84H276.796ZM279.796 138H268.276V144H279.796V138ZM268.276 138C262.136 138 257.914 136.564 255.151 134.138L251.193 138.646C255.427 142.364 261.274 144 268.276 144V138ZM255.151 134.138C252.563 131.865 250.924 127.888 250.924 121.416H244.924C244.924 128.768 246.783 134.775 251.193 138.646L255.151 134.138ZM250.924 121.416V82.376H244.924V121.416H250.924ZM247.924 79.376H239.604V85.376H247.924V79.376ZM242.604 82.376V70.472H236.604V82.376H242.604ZM239.604 73.472H247.924V67.472H239.604V73.472ZM250.924 70.472V52.936H244.924V70.472H250.924ZM247.924 55.936H262.644V49.936H247.924V55.936ZM259.644 52.936V70.472H265.644V52.936H259.644ZM262.644 73.472H279.796V67.472H262.644V73.472ZM276.796 70.472V82.376H282.796V70.472H276.796ZM279.796 79.376H262.644V85.376H279.796V79.376ZM360.957 70.472H363.957V67.472H360.957V70.472ZM360.957 141V144H363.957V141H360.957ZM346.365 141H343.365V144H346.365V141ZM346.365 132.68H349.365V124.078L344.016 130.814L346.365 132.68ZM337.277 139.592L338.489 142.336L338.504 142.33L338.518 142.323L337.277 139.592ZM310.525 138.568L309.121 141.219L309.132 141.225L309.143 141.23L310.525 138.568ZM300.157 128.328L297.525 129.768L297.536 129.787L297.546 129.806L300.157 128.328ZM296.445 70.472V67.472H293.445V70.472H296.445ZM310.909 70.472H313.909V67.472H310.909V70.472ZM315.645 124.36L313.443 126.397L313.456 126.411L313.469 126.425L315.645 124.36ZM341.501 124.36L339.326 122.294L339.325 122.295L341.501 124.36ZM346.365 70.472V67.472H343.365V70.472H346.365ZM357.957 70.472V141H363.957V70.472H357.957ZM360.957 138H346.365V144H360.957V138ZM349.365 141V132.68H343.365V141H349.365ZM344.016 130.814C342.039 133.303 339.407 135.328 336.036 136.861L338.518 142.323C342.656 140.442 346.083 137.86 348.714 134.546L344.016 130.814ZM336.064 136.848C332.793 138.293 329.283 139.024 325.501 139.024V145.024C330.082 145.024 334.422 144.133 338.489 142.336L336.064 136.848ZM325.501 139.024C320.382 139.024 315.873 137.964 311.907 135.906L309.143 141.23C314.052 143.78 319.527 145.024 325.501 145.024V139.024ZM311.929 135.917C308.111 133.896 305.062 130.903 302.768 126.85L297.546 129.806C300.372 134.798 304.235 138.632 309.121 141.219L311.929 135.917ZM302.789 126.888C300.607 122.901 299.445 117.96 299.445 111.944H293.445C293.445 118.728 294.757 124.71 297.525 129.768L302.789 126.888ZM299.445 111.944V70.472H293.445V111.944H299.445ZM296.445 73.472H310.909V67.472H296.445V73.472ZM307.909 70.472V109.768H313.909V70.472H307.909ZM307.909 109.768C307.909 116.564 309.613 122.256 313.443 126.397L317.847 122.323C315.363 119.637 313.909 115.602 313.909 109.768H307.909ZM313.469 126.425C317.299 130.463 322.458 132.352 328.573 132.352V126.352C323.765 126.352 320.305 124.913 317.821 122.295L313.469 126.425ZM328.573 132.352C334.688 132.352 339.847 130.463 343.677 126.425L339.325 122.295C336.841 124.913 333.381 126.352 328.573 126.352V132.352ZM343.676 126.426C347.608 122.287 349.365 116.583 349.365 109.768H343.365C343.365 115.582 341.879 119.606 339.326 122.294L343.676 126.426ZM349.365 109.768V70.472H343.365V109.768H349.365ZM346.365 73.472H360.957V67.472H346.365V73.472ZM398.642 80.712H395.642V91.6173L401.22 82.2464L398.642 80.712ZM407.09 72.392L408.558 75.0084L408.568 75.0026L408.578 74.9967L407.09 72.392ZM419.762 69.32H422.762V66.32H419.762V69.32ZM419.762 84.424V87.424H422.762V84.424H419.762ZM402.994 88.776L400.904 86.6242L400.888 86.6393L400.873 86.6547L402.994 88.776ZM398.642 141V144H401.642V141H398.642ZM384.05 141H381.05V144H384.05V141ZM384.05 70.472V67.472H381.05V70.472H384.05ZM398.642 70.472H401.642V67.472H398.642V70.472ZM401.22 82.2464C403.095 79.0954 405.536 76.7035 408.558 75.0084L405.622 69.7756C401.647 72.0059 398.455 75.1606 396.064 79.1775L401.22 82.2464ZM408.578 74.9967C411.634 73.2506 415.326 72.32 419.762 72.32V66.32C414.47 66.32 409.714 67.4374 405.602 69.7873L408.578 74.9967ZM416.762 69.32V84.424H422.762V69.32H416.762ZM419.762 81.424H416.05V87.424H419.762V81.424ZM416.05 81.424C409.848 81.424 404.632 83.0025 400.904 86.6242L405.084 90.9278C407.33 88.7468 410.817 87.424 416.05 87.424V81.424ZM400.873 86.6547C397.113 90.4148 395.642 96.4666 395.642 103.88H401.642C401.642 96.9574 403.073 92.9398 405.115 90.8973L400.873 86.6547ZM395.642 103.88V141H401.642V103.88H395.642ZM398.642 138H384.05V144H398.642V138ZM387.05 141V70.472H381.05V141H387.05ZM384.05 73.472H398.642V67.472H384.05V73.472ZM395.642 70.472V80.712H401.642V70.472H395.642ZM436.503 86.6L433.871 85.1606L433.862 85.1765L433.854 85.1925L436.503 86.6ZM448.535 73.928L450.066 76.5082L450.072 76.5043L450.078 76.5005L448.535 73.928ZM479.895 72.648L478.466 75.2859L478.499 75.3035L478.532 75.3203L479.895 72.648ZM489.879 80.712L487.494 82.532L492.879 89.588V80.712H489.879ZM489.879 70.472V67.472H486.879V70.472H489.879ZM504.599 70.472H507.599V67.472H504.599V70.472ZM504.599 141V144H507.599V141H504.599ZM489.879 141H486.879V144H489.879V141ZM489.879 130.504H492.879V121.442L487.472 128.714L489.879 130.504ZM479.767 138.824L478.383 136.162L478.383 136.162L479.767 138.824ZM448.535 137.544L446.941 140.086L446.957 140.095L446.972 140.105L448.535 137.544ZM436.503 124.488L433.836 125.862L433.849 125.886L433.862 125.91L436.503 124.488ZM486.807 93L484.176 94.4409L484.189 94.4648L484.202 94.4884L486.807 93ZM478.999 84.808L477.496 87.4043L477.496 87.4043L478.999 84.808ZM458.007 84.808L459.458 87.4337L459.484 87.4193L459.51 87.4043L458.007 84.808ZM450.071 92.872L447.466 91.3836L447.46 91.3939L447.455 91.4042L450.071 92.872ZM450.071 118.216L447.426 119.631L447.438 119.655L447.451 119.678L450.071 118.216ZM458.007 126.664L456.454 129.23L456.493 129.254L456.533 129.277L458.007 126.664ZM478.999 126.664L480.502 129.26L480.502 129.26L478.999 126.664ZM486.807 118.472L484.187 117.01L484.182 117.02L484.176 117.031L486.807 118.472ZM435.151 105.416C435.151 98.7522 436.513 92.976 439.152 88.0075L433.854 85.1925C430.691 91.1466 429.151 97.9145 429.151 105.416H435.151ZM439.135 88.0394C441.881 83.0192 445.523 79.2027 450.066 76.5082L447.004 71.3478C441.477 74.6266 437.099 79.2582 433.871 85.1606L439.135 88.0394ZM450.078 76.5005C454.718 73.7166 459.814 72.32 465.431 72.32V66.32C458.76 66.32 452.592 67.9954 446.992 71.3555L450.078 76.5005ZM465.431 72.32C470.574 72.32 474.885 73.3463 478.466 75.2859L481.324 70.0101C476.713 67.5123 471.382 66.32 465.431 66.32V72.32ZM478.532 75.3203C482.373 77.2803 485.33 79.6965 487.494 82.532L492.264 78.892C489.479 75.2422 485.779 72.2824 481.258 69.9757L478.532 75.3203ZM492.879 80.712V70.472H486.879V80.712H492.879ZM489.879 73.472H504.599V67.472H489.879V73.472ZM501.599 70.472V141H507.599V70.472H501.599ZM504.599 138H489.879V144H504.599V138ZM492.879 141V130.504H486.879V141H492.879ZM487.472 128.714C485.308 131.624 482.311 134.12 478.383 136.162L481.151 141.486C485.756 139.091 489.501 136.04 492.286 132.294L487.472 128.714ZM478.383 136.162C474.599 138.13 470.22 139.152 465.175 139.152V145.152C471.052 145.152 476.402 143.955 481.151 141.486L478.383 136.162ZM465.175 139.152C459.652 139.152 454.648 137.76 450.098 134.983L446.972 140.105C452.491 143.472 458.581 145.152 465.175 145.152V139.152ZM450.129 135.002C445.561 132.138 441.9 128.183 439.144 123.066L433.862 125.91C437.079 131.886 441.44 136.635 446.941 140.086L450.129 135.002ZM439.17 123.114C436.512 117.955 435.151 112.078 435.151 105.416H429.151C429.151 112.92 430.691 119.757 433.836 125.862L439.17 123.114ZM492.879 105.672C492.879 100.38 491.762 95.6238 489.412 91.5116L484.202 94.4884C485.948 97.5442 486.879 101.236 486.879 105.672H492.879ZM489.438 91.5591C487.237 87.5391 484.262 84.3885 480.502 82.2117L477.496 87.4043C480.221 88.9822 482.452 91.2929 484.176 94.4409L489.438 91.5591ZM480.502 82.2117C476.802 80.0693 472.784 78.992 468.503 78.992V84.992C471.731 84.992 474.711 85.792 477.496 87.4043L480.502 82.2117ZM468.503 78.992C464.222 78.992 460.204 80.0693 456.504 82.2117L459.51 87.4043C462.295 85.792 465.275 84.992 468.503 84.992V78.992ZM456.556 82.1823C452.778 84.27 449.755 87.3779 447.466 91.3836L452.676 94.3604C454.483 91.1981 456.751 88.93 459.458 87.4337L456.556 82.1823ZM447.455 91.4042C445.192 95.4373 444.127 100.147 444.127 105.416H450.127C450.127 100.957 451.025 97.304 452.687 94.3397L447.455 91.4042ZM444.127 105.416C444.127 110.69 445.194 115.458 447.426 119.631L452.716 116.801C451.023 113.635 450.127 109.87 450.127 105.416H444.127ZM447.451 119.678C449.725 123.751 452.719 126.97 456.454 129.23L459.56 124.097C456.81 122.433 454.513 120.019 452.691 116.754L447.451 119.678ZM456.533 129.277C460.292 131.397 464.295 132.48 468.503 132.48V126.48C465.372 126.48 462.379 125.686 459.481 124.051L456.533 129.277ZM468.503 132.48C472.784 132.48 476.802 131.403 480.502 129.26L477.496 124.068C474.711 125.68 471.731 126.48 468.503 126.48V132.48ZM480.502 129.26C484.262 127.084 487.237 123.933 489.438 119.913L484.176 117.031C482.452 120.179 480.221 122.49 477.496 124.068L480.502 129.26ZM489.427 119.934C491.761 115.752 492.879 110.966 492.879 105.672H486.879C486.879 110.106 485.949 113.854 484.187 117.01L489.427 119.934ZM591.989 77.64L589.327 79.0224L590.166 80.64H591.989V77.64ZM582.389 67.656L580.918 70.2707L580.939 70.2825L580.96 70.2939L582.389 67.656ZM552.437 68.168L553.931 70.7698L553.931 70.7698L552.437 68.168ZM541.557 79.432L538.922 77.9987L538.912 78.0167L538.902 78.0348L541.557 79.432ZM541.557 113.352L538.892 114.73L538.907 114.758L538.922 114.785L541.557 113.352ZM552.437 124.616L553.931 122.014L553.931 122.014L552.437 124.616ZM587.509 121.928L589.512 124.162L589.512 124.162L587.509 121.928ZM596.597 103.88L599.566 104.314L600.067 100.88H596.597V103.88ZM563.189 103.88H560.189V106.88H563.189V103.88ZM563.189 92.232V89.232H560.189V92.232H563.189ZM612.213 92.232H615.213V89.232H612.213V92.232ZM612.213 103.624L615.186 104.028L615.213 103.827V103.624H612.213ZM604.789 122.696L602.321 120.99L602.313 121.003L602.304 121.015L604.789 122.696ZM589.301 136.648L590.728 139.287L590.734 139.284L590.74 139.28L589.301 136.648ZM545.269 136.008L543.788 138.617L543.8 138.624L543.812 138.63L545.269 136.008ZM528.757 119.752L526.162 121.258L526.169 121.27L526.176 121.281L528.757 119.752ZM528.757 72.904L526.176 71.3746L526.169 71.3864L526.162 71.3984L528.757 72.904ZM545.269 56.776L546.726 59.3985L546.737 59.3924L545.269 56.776ZM593.397 57.928L591.781 60.4553L591.798 60.4662L591.815 60.4769L593.397 57.928ZM609.525 77.64V80.64H613.915L612.32 76.55L609.525 77.64ZM594.651 76.2575C592.092 71.3288 588.481 67.5437 583.818 65.0181L580.96 70.2939C584.489 72.2056 587.278 75.0765 589.327 79.0224L594.651 76.2575ZM583.86 65.0413C579.253 62.4502 573.997 61.2 568.181 61.2V67.2C573.117 67.2 577.333 68.2538 580.918 70.2707L583.86 65.0413ZM568.181 61.2C561.827 61.2 556.054 62.6325 550.943 65.5662L553.931 70.7698C558.036 68.4128 562.759 67.2 568.181 67.2V61.2ZM550.943 65.5662C545.833 68.4999 541.82 72.6686 538.922 77.9987L544.192 80.8653C546.584 76.4674 549.825 73.1268 553.931 70.7698L550.943 65.5662ZM538.902 78.0348C536.081 83.3954 534.717 89.5214 534.717 96.328H540.717C540.717 90.3346 541.913 85.1966 544.212 80.8292L538.902 78.0348ZM534.717 96.328C534.717 103.136 536.081 109.296 538.892 114.73L544.222 111.974C541.913 107.51 540.717 102.32 540.717 96.328H534.717ZM538.922 114.785C541.82 120.115 545.833 124.284 550.943 127.218L553.931 122.014C549.825 119.657 546.584 116.317 544.192 111.919L538.922 114.785ZM550.943 127.218C556.054 130.151 561.827 131.584 568.181 131.584V125.584C562.759 125.584 558.036 124.371 553.931 122.014L550.943 127.218ZM568.181 131.584C576.705 131.584 583.909 129.185 589.512 124.162L585.506 119.694C581.21 123.546 575.529 125.584 568.181 125.584V131.584ZM589.512 124.162C595.063 119.185 598.371 112.49 599.566 104.314L593.629 103.446C592.604 110.46 589.854 115.797 585.506 119.694L589.512 124.162ZM596.597 100.88H563.189V106.88H596.597V100.88ZM566.189 103.88V92.232H560.189V103.88H566.189ZM563.189 95.232H612.213V89.232H563.189V95.232ZM609.213 92.232V103.624H615.213V92.232H609.213ZM609.24 103.22C608.366 109.659 606.067 115.571 602.321 120.99L607.257 124.402C611.533 118.215 614.183 111.413 615.186 104.028L609.24 103.22ZM602.304 121.015C598.658 126.405 593.86 130.737 587.862 134.016L590.74 139.28C597.542 135.562 603.07 130.592 607.274 124.377L602.304 121.015ZM587.874 134.009C582.033 137.166 575.49 138.768 568.181 138.768V144.768C576.403 144.768 583.939 142.956 590.728 139.287L587.874 134.009ZM568.181 138.768C560.298 138.768 553.166 136.964 546.726 133.386L543.812 138.63C551.196 142.732 559.339 144.768 568.181 144.768V138.768ZM546.75 133.399C540.298 129.735 535.171 124.69 531.338 118.223L526.176 121.281C530.535 128.638 536.416 134.431 543.788 138.617L546.75 133.399ZM531.352 118.246C527.63 111.832 525.741 104.552 525.741 96.328H519.741C519.741 105.512 521.863 113.848 526.162 121.258L531.352 118.246ZM525.741 96.328C525.741 88.1042 527.63 80.824 531.352 74.4096L526.162 71.3984C521.863 78.808 519.741 87.1438 519.741 96.328H525.741ZM531.338 74.4334C535.167 67.9712 540.287 62.9758 546.726 59.3985L543.812 54.1535C536.427 58.2561 530.539 64.0128 526.176 71.3746L531.338 74.4334ZM546.737 59.3924C553.271 55.7268 560.401 53.888 568.181 53.888V47.888C559.407 47.888 551.261 49.9746 543.801 54.1596L546.737 59.3924ZM568.181 53.888C577.132 53.888 584.967 56.0975 591.781 60.4553L595.013 55.4006C587.15 50.3718 578.174 47.888 568.181 47.888V53.888ZM591.815 60.4769C598.66 64.7254 603.626 70.7702 606.73 78.73L612.32 76.55C608.768 67.4431 602.982 60.3466 594.979 55.3791L591.815 60.4769ZM609.525 74.64H591.989V80.64H609.525V74.64ZM645.037 80.712H642.037V91.6173L647.615 82.2464L645.037 80.712ZM653.485 72.392L654.953 75.0084L654.963 75.0026L654.973 74.9967L653.485 72.392ZM666.157 69.32H669.157V66.32H666.157V69.32ZM666.157 84.424V87.424H669.157V84.424H666.157ZM649.389 88.776L647.299 86.6242L647.283 86.6393L647.268 86.6547L649.389 88.776ZM645.037 141V144H648.037V141H645.037ZM630.445 141H627.445V144H630.445V141ZM630.445 70.472V67.472H627.445V70.472H630.445ZM645.037 70.472H648.037V67.472H645.037V70.472ZM647.615 82.2464C649.49 79.0954 651.931 76.7035 654.953 75.0084L652.017 69.7756C648.041 72.0059 644.85 75.1606 642.459 79.1775L647.615 82.2464ZM654.973 74.9967C658.029 73.2506 661.721 72.32 666.157 72.32V66.32C660.865 66.32 656.109 67.4374 651.997 69.7873L654.973 74.9967ZM663.157 69.32V84.424H669.157V69.32H663.157ZM666.157 81.424H662.445V87.424H666.157V81.424ZM662.445 81.424C656.243 81.424 651.027 83.0025 647.299 86.6242L651.479 90.9278C653.724 88.7468 657.212 87.424 662.445 87.424V81.424ZM647.268 86.6547C643.507 90.4148 642.037 96.4666 642.037 103.88H648.037C648.037 96.9574 649.468 92.9398 651.51 90.8973L647.268 86.6547ZM642.037 103.88V141H648.037V103.88H642.037ZM645.037 138H630.445V144H645.037V138ZM633.445 141V70.472H627.445V141H633.445ZM630.445 73.472H645.037V67.472H630.445V73.472ZM642.037 70.472V80.712H648.037V70.472H642.037ZM852.31 70.472L855.175 71.3612L856.382 67.472H852.31V70.472ZM830.422 141V144H832.632L833.287 141.889L830.422 141ZM815.062 141L812.168 141.789L812.771 144H815.062V141ZM800.854 88.904L803.748 88.1146L800.854 77.5022L797.96 88.1146L800.854 88.904ZM786.646 141V144H788.937L789.54 141.789L786.646 141ZM771.286 141L768.422 141.894L769.08 144H771.286V141ZM749.27 70.472V67.472H745.191L746.406 71.3659L749.27 70.472ZM764.118 70.472L767.022 69.7182L766.439 67.472H764.118V70.472ZM778.838 127.176L775.934 127.93L778.813 139.019L781.739 127.942L778.838 127.176ZM793.814 70.472V67.472H791.503L790.913 69.7059L793.814 70.472ZM809.046 70.472L811.954 69.7335L811.379 67.472H809.046V70.472ZM823.382 126.92L820.474 127.658L826.287 127.671L823.382 126.92ZM837.974 70.472V67.472H835.651L835.069 69.7212L837.974 70.472ZM849.445 69.5828L827.557 140.111L833.287 141.889L855.175 71.3612L849.445 69.5828ZM830.422 138H815.062V144H830.422V138ZM817.956 140.211L803.748 88.1146L797.96 89.6934L812.168 141.789L817.956 140.211ZM797.96 88.1146L783.752 140.211L789.54 141.789L803.748 89.6934L797.96 88.1146ZM786.646 138H771.286V144H786.646V138ZM774.15 140.106L752.134 69.5781L746.406 71.3659L768.422 141.894L774.15 140.106ZM749.27 73.472H764.118V67.472H749.27V73.472ZM761.214 71.2258L775.934 127.93L781.742 126.422L767.022 69.7182L761.214 71.2258ZM781.739 127.942L796.715 71.2381L790.913 69.7059L775.937 126.41L781.739 127.942ZM793.814 73.472H809.046V67.472H793.814V73.472ZM806.138 71.2105L820.474 127.658L826.29 126.182L811.954 69.7335L806.138 71.2105ZM826.287 127.671L840.879 71.2228L835.069 69.7212L820.477 126.169L826.287 127.671ZM837.974 73.472H852.31V67.472H837.974V73.472Z" fill="white" mask="url(#path-1-outside-1_369_1931)"/>
<path d="M708.5 146.787C726.971 146.787 742 131.782 742 113.338C742 95.2736 710.604 54.275 709.267 52.5391L708.5 51.5474L707.733 52.5456C706.397 54.2782 675 95.2797 675 113.341C675 131.782 690.029 146.787 708.5 146.787Z" fill="white"/>
<path fill-rule="evenodd" clip-rule="evenodd" d="M708.719 82.224C708.697 82.0532 708.685 81.8793 708.685 81.7027C708.685 79.3939 710.653 77.5222 713.081 77.5222C715.509 77.5222 717.477 79.3939 717.477 81.7027C717.477 83.7316 715.957 85.4228 713.941 85.8032C709.414 87.4171 709.389 91.8627 709.355 98.1099C709.338 101.315 709.318 104.993 708.686 109.007L708.719 82.224Z" fill="#002623"/>
<path d="M714.05 80.7002C714.325 80.6743 714.569 80.8762 714.594 81.1511C714.62 81.426 714.419 81.6699 714.144 81.6958L714.05 80.7002ZM710.161 86.0643L710.63 86.2391L710.63 86.2391L710.161 86.0643ZM714.144 81.6958C713.901 81.7187 713.362 81.9311 712.695 82.6349C712.04 83.3264 711.293 84.4616 710.63 86.2391L709.693 85.8896C710.392 84.0161 711.202 82.7568 711.969 81.9472C712.725 81.1498 713.473 80.7546 714.05 80.7002L714.144 81.6958ZM710.63 86.2391C709.921 88.1388 709.554 91.1984 709.369 94.3262C709.186 97.4359 709.186 100.547 709.186 102.517H708.186C708.186 100.548 708.186 97.4103 708.371 94.2673C708.556 91.1424 708.926 87.9453 709.693 85.8896L710.63 86.2391Z" fill="white"/>
<path fill-rule="evenodd" clip-rule="evenodd" d="M708.684 97.8669C708.646 97.5798 708.627 97.2873 708.627 96.9905C708.627 93.1183 711.927 89.9792 715.999 89.9792C720.07 89.9792 723.371 93.1183 723.371 96.9905C723.371 100.359 720.874 103.172 717.544 103.848C709.868 106.779 709.834 117.413 709.793 130.033C709.772 136.523 709.749 143.539 708.684 150.302L708.684 97.8669Z" fill="#57B492"/>
<path d="M717.14 94.668C717.415 94.6419 717.659 94.8435 717.685 95.1184C717.711 95.3933 717.51 95.6374 717.235 95.6635L717.14 94.668ZM717.235 95.6635C716.231 95.759 713.306 97.249 711.48 103.035L710.527 102.734C712.412 96.7583 715.567 94.8176 717.14 94.668L717.235 95.6635ZM711.48 103.035C710.573 105.912 709.995 110.819 709.647 115.83C709.3 120.825 709.185 125.868 709.185 128.982H708.185C708.185 125.849 708.301 120.783 708.65 115.761C708.997 110.756 709.579 105.739 710.527 102.734L711.48 103.035Z" fill="#002623"/>
<path fill-rule="evenodd" clip-rule="evenodd" d="M699.939 92.1479C696.553 91.5134 694 88.6748 694 85.2691C694 81.3969 697.301 78.2578 701.372 78.2578C705.416 78.2578 708.7 81.355 708.744 85.1915V84.8739C708.753 85.0003 708.754 85.156 708.744 85.3354C708.744 85.3392 708.744 85.3429 708.744 85.3467V131.061C707.684 124.329 707.65 118.159 707.621 112.785C707.564 102.311 707.523 94.8573 699.939 92.1479Z" fill="#57B492"/>
<path d="M700.231 84.3763C699.956 84.3501 699.712 84.5518 699.686 84.8267C699.66 85.1016 699.861 85.3456 700.136 85.3718L700.231 84.3763ZM706.367 92.593L705.898 92.7657L706.367 92.593ZM700.136 85.3718C700.613 85.4171 701.52 85.8056 702.594 86.9486C703.657 88.0792 704.849 89.916 705.898 92.7657L706.837 92.4204C705.753 89.4747 704.497 87.5132 703.323 86.2638C702.161 85.0268 701.043 84.4535 700.231 84.3763L700.136 85.3718ZM705.898 92.7657C707.219 96.3534 707.607 101.423 707.655 106.428C707.679 108.922 707.619 111.383 707.553 113.616C707.486 115.844 707.413 117.854 707.413 119.426H708.413C708.413 117.873 708.485 115.886 708.552 113.646C708.619 111.41 708.679 108.933 708.655 106.418C708.607 101.407 708.222 96.1842 706.837 92.4204L705.898 92.7657Z" fill="#002623"/>
<path fill-rule="evenodd" clip-rule="evenodd" d="M708.688 105.256C708.725 104.97 708.744 104.679 708.744 104.383C708.744 100.511 705.444 97.3718 701.372 97.3718C697.301 97.3718 694 100.511 694 104.383C694 107.789 696.554 110.628 699.94 111.262C707.523 113.972 707.564 121.426 707.621 131.898C707.65 137.273 707.684 143.443 708.744 150.175L708.688 105.256Z" fill="#002623"/>
<path d="M699.797 102.517C701.085 102.64 704.126 104.355 705.981 110.236C709.459 121.263 708.3 131.923 708.3 138.172" stroke="white" stroke-linecap="round"/>
<path d="M710.455 51.6238L710.453 51.6214L709.686 50.6296L708.496 49.0907L707.31 50.6334L706.545 51.63C706.544 51.6304 706.544 51.6308 706.544 51.6312C705.858 52.5211 697.646 63.2434 689.596 76.0205C685.571 82.4102 681.567 89.3435 678.565 95.8362C675.587 102.277 673.5 108.479 673.5 113.341C673.5 132.613 689.203 148.287 708.5 148.287C727.797 148.287 743.5 132.613 743.5 113.338C743.5 108.475 741.413 102.273 738.435 95.8317C735.433 89.3388 731.429 82.4056 727.404 76.0158C719.351 63.2329 711.135 52.5066 710.455 51.6238Z" stroke="#002623" stroke-width="3"/>
</g>
<defs>
<filter id="filter0_d_369_1931" x="5.6001" y="46.634" width="850.709" height="111.668" filterUnits="userSpaceOnUse" color-interpolation-filters="sRGB">
<feFlood flood-opacity="0" result="BackgroundImageFix"/>
<feColorMatrix in="SourceAlpha" type="matrix" values="0 0 0 0 0 0 0 0 0 0 0 0 0 0 0 0 0 0 127 0" result="hardAlpha"/>
<feOffset dy="4"/>
<feGaussianBlur stdDeviation="2"/>
<feComposite in2="hardAlpha" operator="out"/>
<feColorMatrix type="matrix" values="0 0 0 0 0 0 0 0 0 0 0 0 0 0 0 0 0 0 0.25 0"/>
<feBlend mode="normal" in2="BackgroundImageFix" result="effect1_dropShadow_369_1931"/>
<feBlend mode="normal" in="SourceGraphic" in2="effect1_dropShadow_369_1931" result="shape"/>
</filter>
</defs>
</svg>
