<svg width="375" height="76" viewBox="0 0 375 76" fill="none" xmlns="http://www.w3.org/2000/svg">
<path fill-rule="evenodd" clip-rule="evenodd" d="M178.768 56.3972C114.211 66.4264 50.1896 76.3724 0 58.9003V76H375V58.9003C320.521 34.3753 249.325 45.436 178.768 56.3972Z" fill="white"/>
<path fill-rule="evenodd" clip-rule="evenodd" d="M375 36.4503C375 36.4503 282.863 -30.7268 186.066 17.3133C131.615 44.3372 122.996 56.7267 120.387 64.7561C139.549 62.4902 159.134 59.4476 178.768 56.3972C249.325 45.436 320.521 34.3754 375 58.9004L375 36.4503Z" fill="#002623"/>
<path fill-rule="evenodd" clip-rule="evenodd" d="M204.378 52.4773C188.356 45.8502 98.6198 10.577 48.3337 30.0646C28.292 37.8314 0 58.7813 0 58.7813V58.9004C50.1896 76.3726 114.211 66.4266 178.768 56.3973C187.306 55.071 195.852 53.7433 204.378 52.4773Z" fill="#9DC183"/>
</svg>
