<svg width="1923" height="206" viewBox="0 0 1923 206" fill="none" xmlns="http://www.w3.org/2000/svg">
<rect x="3" width="1920" height="205" fill="white"/>
<path fill-rule="evenodd" clip-rule="evenodd" d="M550.191 201.772C320.406 183.871 2.69141 79.6637 2.69141 79.6637V205H1922.69V79.6637C1922.69 79.6637 1601.85 32.3533 1391.19 33.0067C1224.23 33.5246 1096.87 78.8534 973.67 122.704C842.152 169.514 715.368 214.639 550.191 201.772Z" fill="#DBEBDD"/>
<path fill-rule="evenodd" clip-rule="evenodd" d="M1511.63 37.5616C1353.27 -8.25617 1168.92 -22.3952 990.154 54.438C939.075 76.3921 763.891 141.414 590.883 204.769C737.558 208.453 854.608 166.792 975.67 123.704C1098.87 79.8534 1226.23 34.5246 1393.19 34.0067C1430.07 33.8923 1470.32 35.2476 1511.63 37.5616Z" fill="#9DC183"/>
<path fill-rule="evenodd" clip-rule="evenodd" d="M-5.25678e-06 84.2849C55.9407 27.6595 209.974 -61.0483 569.816 88.9522C605.579 103.86 698.555 138.024 810.413 178.274C732.573 198.546 650.238 210.345 555.191 202.94C325.405 185.04 7.69052 80.8325 7.69052 80.8325L-5.25678e-06 84.2849Z" fill="#002623"/>
</svg>
