<svg width="1920" height="256" viewBox="0 0 1920 256" fill="none" xmlns="http://www.w3.org/2000/svg">
<path d="M0 174.5L960 155L1091 174.5L1511.5 139.5H1633.5L1920 195V256H0V174.5Z" fill="white"/>
<mask id="mask0_257_891" style="mask-type:alpha" maskUnits="userSpaceOnUse" x="0" y="0" width="1920" height="256">
<path d="M0 0H1920V196.5C1920 196.5 1705.37 171.937 1533 161.5C1126.92 136.912 836.857 288.93 432 249C251.304 231.179 0 196.5 0 196.5V0Z" fill="#DBEBDD"/>
</mask>
<g mask="url(#mask0_257_891)">
<path d="M1775.63 115.562C1483.15 4.647 993 212.662 993 212.662V450H2031V264.031C2031 264.031 1881.52 155.718 1775.63 115.562Z" fill="#9DC183"/>
<path d="M335.817 104.562C720.438 -6.353 1365 201.662 1365 201.662V439H0V253.031C0 253.031 196.569 144.718 335.817 104.562Z" fill="#002623"/>
<path d="M-1.61017 160.562C342.436 49.647 919 257.662 919 257.662V495H-302V309.031C-302 309.031 -126.168 200.718 -1.61017 160.562Z" fill="#9DC183"/>
</g>
</svg>
